<svg xmlns="http://www.w3.org/2000/svg" width="920" height="520" viewBox="0 0 920 520">
  <rect width="100%" height="100%" fill="#ffffff"/>
  <style>
    text { font-family: Arial, sans-serif; fill: #111827; }
    .title { font-size: 22px; font-weight: 700; }
    .subtitle { font-size: 13px; fill: #6b7280; }
    .label { font-size: 12px; fill: #6b7280; }
    .tick { font-size: 11px; fill: #6b7280; }
  </style>
<text x="40" y="42" class="title">Actual vs Predicted t+5min Pickups</text>
<text x="40" y="64" class="subtitle">Largest-error sample exported from the March 2026 test set. Diagonal line is perfect prediction.</text>
<line x1="82" y1="410.0" x2="842" y2="410.0" stroke="#e5e7eb" stroke-width="1"/>
<line x1="82.0" y1="90" x2="82.0" y2="410" stroke="#e5e7eb" stroke-width="1"/>
<text x="72" y="414.0" text-anchor="end" class="tick">0</text>
<text x="82.0" y="432" text-anchor="middle" class="tick">0</text>
<line x1="82" y1="346.0" x2="842" y2="346.0" stroke="#e5e7eb" stroke-width="1"/>
<line x1="234.0" y1="90" x2="234.0" y2="410" stroke="#e5e7eb" stroke-width="1"/>
<text x="72" y="350.0" text-anchor="end" class="tick">23</text>
<text x="234.0" y="432" text-anchor="middle" class="tick">23</text>
<line x1="82" y1="282.0" x2="842" y2="282.0" stroke="#e5e7eb" stroke-width="1"/>
<line x1="386.0" y1="90" x2="386.0" y2="410" stroke="#e5e7eb" stroke-width="1"/>
<text x="72" y="286.0" text-anchor="end" class="tick">45</text>
<text x="386.0" y="432" text-anchor="middle" class="tick">45</text>
<line x1="82" y1="218.0" x2="842" y2="218.0" stroke="#e5e7eb" stroke-width="1"/>
<line x1="538.0" y1="90" x2="538.0" y2="410" stroke="#e5e7eb" stroke-width="1"/>
<text x="72" y="222.0" text-anchor="end" class="tick">68</text>
<text x="538.0" y="432" text-anchor="middle" class="tick">68</text>
<line x1="82" y1="154.0" x2="842" y2="154.0" stroke="#e5e7eb" stroke-width="1"/>
<line x1="690.0" y1="90" x2="690.0" y2="410" stroke="#e5e7eb" stroke-width="1"/>
<text x="72" y="158.0" text-anchor="end" class="tick">91</text>
<text x="690.0" y="432" text-anchor="middle" class="tick">91</text>
<line x1="82" y1="90.0" x2="842" y2="90.0" stroke="#e5e7eb" stroke-width="1"/>
<line x1="842.0" y1="90" x2="842.0" y2="410" stroke="#e5e7eb" stroke-width="1"/>
<text x="72" y="94.0" text-anchor="end" class="tick">113</text>
<text x="842.0" y="432" text-anchor="middle" class="tick">113</text>
<line x1="82" y1="410" x2="842" y2="410" stroke="#1f2937" stroke-width="1"/>
<line x1="82" y1="90" x2="82" y2="410" stroke="#1f2937" stroke-width="1"/>
<line x1="82" y1="410" x2="842" y2="90" stroke="#9ca3af" stroke-dasharray="6 6" stroke-width="2"/>
<circle cx="604.7513227513227" cy="410.0" r="3.2" fill="#2563eb" opacity="0.42"/>
<circle cx="82.0" cy="217.95202821869486" r="3.2" fill="#2563eb" opacity="0.42"/>
<circle cx="618.1552028218695" cy="341.990405643739" r="3.2" fill="#2563eb" opacity="0.42"/>
<circle cx="591.347442680776" cy="343.20155202821866" r="3.2" fill="#2563eb" opacity="0.42"/>
<circle cx="691.8765432098766" cy="295.20776014109344" r="3.2" fill="#2563eb" opacity="0.42"/>
<circle cx="577.9435626102293" cy="340.20021164021165" r="3.2" fill="#2563eb" opacity="0.42"/>
<circle cx="618.1552028218695" cy="321.0625749559083" r="3.2" fill="#2563eb" opacity="0.42"/>
<circle cx="396.9911816578483" cy="410.0" r="3.2" fill="#2563eb" opacity="0.42"/>
<circle cx="82.0" cy="279.1516049382716" r="3.2" fill="#2563eb" opacity="0.42"/>
<circle cx="390.28924162257493" cy="410.0" r="3.2" fill="#2563eb" opacity="0.42"/>
<circle cx="82.0" cy="285.20084656084657" r="3.2" fill="#2563eb" opacity="0.42"/>
<circle cx="577.9435626102293" cy="325.153721340388" r="3.2" fill="#2563eb" opacity="0.42"/>
<circle cx="651.6649029982364" cy="290.6055731922399" r="3.2" fill="#2563eb" opacity="0.42"/>
<circle cx="598.0493827160494" cy="312.3717813051146" r="3.2" fill="#2563eb" opacity="0.42"/>
<circle cx="82.0" cy="292.0399294532628" r="3.2" fill="#2563eb" opacity="0.42"/>
<circle cx="82.0" cy="293.55273368606703" r="3.2" fill="#2563eb" opacity="0.42"/>
<circle cx="443.90476190476187" cy="369.00867724867726" r="3.2" fill="#2563eb" opacity="0.42"/>
<circle cx="685.1746031746031" cy="266.48338624338624" r="3.2" fill="#2563eb" opacity="0.42"/>
<circle cx="658.3668430335097" cy="277.5623280423281" r="3.2" fill="#2563eb" opacity="0.42"/>
<circle cx="611.4532627865962" cy="297.29340388007057" r="3.2" fill="#2563eb" opacity="0.42"/>
<circle cx="497.5202821869488" cy="343.6386596119929" r="3.2" fill="#2563eb" opacity="0.42"/>
<circle cx="336.673721340388" cy="410.0" r="3.2" fill="#2563eb" opacity="0.42"/>
<circle cx="510.9241622574956" cy="335.89206349206347" r="3.2" fill="#2563eb" opacity="0.42"/>
<circle cx="537.7319223985891" cy="324.340176366843" r="3.2" fill="#2563eb" opacity="0.42"/>
<circle cx="685.1746031746031" cy="260.09044091710757" r="3.2" fill="#2563eb" opacity="0.42"/>
<circle cx="591.347442680776" cy="297.8758377425044" r="3.2" fill="#2563eb" opacity="0.42"/>
<circle cx="430.50088183421514" cy="365.51548500881836" r="3.2" fill="#2563eb" opacity="0.42"/>
<circle cx="557.8377425044091" cy="311.1936507936508" r="3.2" fill="#2563eb" opacity="0.42"/>
<circle cx="484.11640211640207" cy="342.05305114638446" r="3.2" fill="#2563eb" opacity="0.42"/>
<circle cx="537.7319223985891" cy="318.8008465608466" r="3.2" fill="#2563eb" opacity="0.42"/>
<circle cx="557.8377425044091" cy="309.0732980599647" r="3.2" fill="#2563eb" opacity="0.42"/>
<circle cx="430.50088183421514" cy="362.4015520282187" r="3.2" fill="#2563eb" opacity="0.42"/>
<circle cx="383.58730158730157" cy="381.13255731922396" r="3.2" fill="#2563eb" opacity="0.42"/>
<circle cx="403.69312169312167" cy="370.73227513227516" r="3.2" fill="#2563eb" opacity="0.42"/>
<circle cx="484.11640211640207" cy="336.7738977072311" r="3.2" fill="#2563eb" opacity="0.42"/>
<circle cx="531.0299823633156" cy="316.49820105820106" r="3.2" fill="#2563eb" opacity="0.42"/>
<circle cx="464.010582010582" cy="344.5520987654321" r="3.2" fill="#2563eb" opacity="0.42"/>
<circle cx="470.71252204585534" cy="341.379188712522" r="3.2" fill="#2563eb" opacity="0.42"/>
<circle cx="464.010582010582" cy="344.1488536155203" r="3.2" fill="#2563eb" opacity="0.42"/>
<circle cx="604.7513227513227" cy="284.8653262786596" r="3.2" fill="#2563eb" opacity="0.42"/>
<circle cx="390.28924162257493" cy="374.96592592592594" r="3.2" fill="#2563eb" opacity="0.42"/>
<circle cx="537.7319223985891" cy="312.81481481481484" r="3.2" fill="#2563eb" opacity="0.42"/>
<circle cx="698.5784832451499" cy="244.46716049382718" r="3.2" fill="#2563eb" opacity="0.42"/>
<circle cx="82.0" cy="315.96656084656087" r="3.2" fill="#2563eb" opacity="0.42"/>
<circle cx="531.0299823633156" cy="314.6069841269841" r="3.2" fill="#2563eb" opacity="0.42"/>
<circle cx="551.1358024691358" cy="305.7717107583775" r="3.2" fill="#2563eb" opacity="0.42"/>
<circle cx="510.9241622574956" cy="322.16649029982364" r="3.2" fill="#2563eb" opacity="0.42"/>
<circle cx="437.2028218694885" cy="353.19604938271607" r="3.2" fill="#2563eb" opacity="0.42"/>
<circle cx="423.79894179894177" cy="358.8189065255732" r="3.2" fill="#2563eb" opacity="0.42"/>
<circle cx="195.93298059964727" cy="269.85693121693123" r="3.2" fill="#2563eb" opacity="0.42"/>
<circle cx="577.9435626102293" cy="292.70165784832454" r="3.2" fill="#2563eb" opacity="0.42"/>
<circle cx="537.7319223985891" cy="309.44973544973544" r="3.2" fill="#2563eb" opacity="0.42"/>
<circle cx="376.8853615520282" cy="377.16613756613754" r="3.2" fill="#2563eb" opacity="0.42"/>
<circle cx="410.39506172839504" cy="362.95125220458556" r="3.2" fill="#2563eb" opacity="0.42"/>
<circle cx="497.5202821869488" cy="326.2469135802469" r="3.2" fill="#2563eb" opacity="0.42"/>
<circle cx="537.7319223985891" cy="309.12747795414464" r="3.2" fill="#2563eb" opacity="0.42"/>
<circle cx="383.58730158730157" cy="374.02962962962965" r="3.2" fill="#2563eb" opacity="0.42"/>
<circle cx="584.6455026455027" cy="288.9005996472663" r="3.2" fill="#2563eb" opacity="0.42"/>
<circle cx="430.50088183421514" cy="353.3721340388007" r="3.2" fill="#2563eb" opacity="0.42"/>
<circle cx="443.90476190476187" cy="347.360987654321" r="3.2" fill="#2563eb" opacity="0.42"/>
<circle cx="443.90476190476187" cy="347.30144620811285" r="3.2" fill="#2563eb" opacity="0.42"/>
<circle cx="443.90476190476187" cy="347.0226455026455" r="3.2" fill="#2563eb" opacity="0.42"/>
<circle cx="430.50088183421514" cy="352.0396472663139" r="3.2" fill="#2563eb" opacity="0.42"/>
<circle cx="390.28924162257493" cy="368.7532980599647" r="3.2" fill="#2563eb" opacity="0.42"/>
<circle cx="551.1358024691358" cy="300.4651851851852" r="3.2" fill="#2563eb" opacity="0.42"/>
<circle cx="517.626102292769" cy="314.3194356261023" r="3.2" fill="#2563eb" opacity="0.42"/>
<circle cx="403.69312169312167" cy="361.72599647266316" r="3.2" fill="#2563eb" opacity="0.42"/>
<circle cx="82.0" cy="323.15583774250445" r="3.2" fill="#2563eb" opacity="0.42"/>
<circle cx="524.3280423280423" cy="310.2031746031746" r="3.2" fill="#2563eb" opacity="0.42"/>
<circle cx="403.69312169312167" cy="360.4702645502646" r="3.2" fill="#2563eb" opacity="0.42"/>
<circle cx="390.28924162257493" cy="365.8185537918871" r="3.2" fill="#2563eb" opacity="0.42"/>
<circle cx="537.7319223985891" cy="303.59068783068784" r="3.2" fill="#2563eb" opacity="0.42"/>
<circle cx="443.90476190476187" cy="342.15999999999997" r="3.2" fill="#2563eb" opacity="0.42"/>
<circle cx="450.60670194003524" cy="339.26137566137567" r="3.2" fill="#2563eb" opacity="0.42"/>
<circle cx="484.11640211640207" cy="324.8943915343915" r="3.2" fill="#2563eb" opacity="0.42"/>
<circle cx="82.0" cy="325.7973897707231" r="3.2" fill="#2563eb" opacity="0.42"/>
<circle cx="430.50088183421514" cy="347.328253968254" r="3.2" fill="#2563eb" opacity="0.42"/>
<circle cx="370.18342151675483" cy="372.63816578483244" r="3.2" fill="#2563eb" opacity="0.42"/>
<circle cx="417.0970017636684" cy="352.8294885361552" r="3.2" fill="#2563eb" opacity="0.42"/>
<circle cx="544.4338624338625" cy="299.0138977072311" r="3.2" fill="#2563eb" opacity="0.42"/>
<circle cx="464.010582010582" cy="332.39322751322754" r="3.2" fill="#2563eb" opacity="0.42"/>
<circle cx="624.8571428571429" cy="263.67082892416227" r="3.2" fill="#2563eb" opacity="0.42"/>
<circle cx="464.010582010582" cy="331.38723104056436" r="3.2" fill="#2563eb" opacity="0.42"/>
<circle cx="390.28924162257493" cy="362.3109700176367" r="3.2" fill="#2563eb" opacity="0.42"/>
<circle cx="82.0" cy="327.90109347442683" r="3.2" fill="#2563eb" opacity="0.42"/>
<circle cx="249.5485008818342" cy="257.6963668430335" r="3.2" fill="#2563eb" opacity="0.42"/>
<circle cx="598.0493827160494" cy="274.46306878306876" r="3.2" fill="#2563eb" opacity="0.42"/>
<circle cx="437.2028218694885" cy="342.1647971781305" r="3.2" fill="#2563eb" opacity="0.42"/>
<circle cx="457.3086419753086" cy="333.44409171075836" r="3.2" fill="#2563eb" opacity="0.42"/>
<circle cx="437.2028218694885" cy="341.770582010582" r="3.2" fill="#2563eb" opacity="0.42"/>
<circle cx="329.97178130511463" cy="386.4404938271605" r="3.2" fill="#2563eb" opacity="0.42"/>
<circle cx="423.79894179894177" cy="346.913721340388" r="3.2" fill="#2563eb" opacity="0.42"/>
<circle cx="544.4338624338625" cy="295.88783068783073" r="3.2" fill="#2563eb" opacity="0.42"/>
<circle cx="396.9911816578483" cy="357.8868430335097" r="3.2" fill="#2563eb" opacity="0.42"/>
<circle cx="477.41446208112876" cy="323.96176366843036" r="3.2" fill="#2563eb" opacity="0.42"/>
<circle cx="417.0970017636684" cy="349.0840211640212" r="3.2" fill="#2563eb" opacity="0.42"/>
<circle cx="685.1746031746031" cy="235.82377425044092" r="3.2" fill="#2563eb" opacity="0.42"/>
<circle cx="82.0" cy="330.33918871252206" r="3.2" fill="#2563eb" opacity="0.42"/>
<circle cx="329.97178130511463" cy="385.0665255731922" r="3.2" fill="#2563eb" opacity="0.42"/>
<circle cx="370.18342151675483" cy="368.0184832451499" r="3.2" fill="#2563eb" opacity="0.42"/>
<circle cx="437.2028218694885" cy="339.6459964726631" r="3.2" fill="#2563eb" opacity="0.42"/>
<circle cx="437.2028218694885" cy="339.52719576719574" r="3.2" fill="#2563eb" opacity="0.42"/>
<circle cx="356.7795414462081" cy="373.11534391534394" r="3.2" fill="#2563eb" opacity="0.42"/>
<circle cx="410.39506172839504" cy="350.5068077601411" r="3.2" fill="#2563eb" opacity="0.42"/>
<circle cx="363.48148148148147" cy="370.13911816578485" r="3.2" fill="#2563eb" opacity="0.42"/>
<circle cx="336.673721340388" cy="380.90765432098766" r="3.2" fill="#2563eb" opacity="0.42"/>
<circle cx="510.9241622574956" cy="307.4428218694885" r="3.2" fill="#2563eb" opacity="0.42"/>
<circle cx="390.28924162257493" cy="358.2251851851852" r="3.2" fill="#2563eb" opacity="0.42"/>
<circle cx="363.48148148148147" cy="369.41022927689596" r="3.2" fill="#2563eb" opacity="0.42"/>
<circle cx="403.69312169312167" cy="351.8423985890653" r="3.2" fill="#2563eb" opacity="0.42"/>
<circle cx="598.0493827160494" cy="269.8857142857143" r="3.2" fill="#2563eb" opacity="0.42"/>
<circle cx="738.7901234567901" cy="210.52684303350972" r="3.2" fill="#2563eb" opacity="0.42"/>
<circle cx="531.0299823633156" cy="297.9957671957672" r="3.2" fill="#2563eb" opacity="0.42"/>
<circle cx="551.1358024691358" cy="289.32754850088185" r="3.2" fill="#2563eb" opacity="0.42"/>
<circle cx="618.1552028218695" cy="261.10490299823635" r="3.2" fill="#2563eb" opacity="0.42"/>
<circle cx="423.79894179894177" cy="342.86405643738976" r="3.2" fill="#2563eb" opacity="0.42"/>
<circle cx="678.4726631393298" cy="235.52239858906523" r="3.2" fill="#2563eb" opacity="0.42"/>
<circle cx="457.3086419753086" cy="328.3901234567901" r="3.2" fill="#2563eb" opacity="0.42"/>
<circle cx="122.2116402116402" cy="316.7496296296296" r="3.2" fill="#2563eb" opacity="0.42"/>
<circle cx="262.95238095238096" cy="410.0" r="3.2" fill="#2563eb" opacity="0.42"/>
<circle cx="376.8853615520282" cy="361.84818342151675" r="3.2" fill="#2563eb" opacity="0.42"/>
<circle cx="356.7795414462081" cy="369.986455026455" r="3.2" fill="#2563eb" opacity="0.42"/>
<circle cx="484.11640211640207" cy="316.20895943562607" r="3.2" fill="#2563eb" opacity="0.42"/>
<circle cx="785.7037037037037" cy="188.56959435626106" r="3.2" fill="#2563eb" opacity="0.42"/>
<circle cx="490.8183421516755" cy="312.0173544973545" r="3.2" fill="#2563eb" opacity="0.42"/>
<circle cx="524.3280423280423" cy="297.9051851851852" r="3.2" fill="#2563eb" opacity="0.42"/>
<circle cx="464.010582010582" cy="323.05283950617286" r="3.2" fill="#2563eb" opacity="0.42"/>
<circle cx="356.7795414462081" cy="368.18299823633157" r="3.2" fill="#2563eb" opacity="0.42"/>
<circle cx="336.673721340388" cy="376.6395767195767" r="3.2" fill="#2563eb" opacity="0.42"/>
<circle cx="343.37566137566137" cy="373.7855379188712" r="3.2" fill="#2563eb" opacity="0.42"/>
<circle cx="457.3086419753086" cy="325.73925925925926" r="3.2" fill="#2563eb" opacity="0.42"/>
<circle cx="182.5291005291005" cy="294.03753086419755" r="3.2" fill="#2563eb" opacity="0.42"/>
<circle cx="510.9241622574956" cy="302.88493827160494" r="3.2" fill="#2563eb" opacity="0.42"/>
<circle cx="624.8571428571429" cy="254.9072310405644" r="3.2" fill="#2563eb" opacity="0.42"/>
<circle cx="376.8853615520282" cy="359.2252557319224" r="3.2" fill="#2563eb" opacity="0.42"/>
<circle cx="450.60670194003524" cy="327.8116402116402" r="3.2" fill="#2563eb" opacity="0.42"/>
<circle cx="417.0970017636684" cy="341.8967195767196" r="3.2" fill="#2563eb" opacity="0.42"/>
<circle cx="557.8377425044091" cy="282.6035978835979" r="3.2" fill="#2563eb" opacity="0.42"/>
<circle cx="517.626102292769" cy="299.39880070546735" r="3.2" fill="#2563eb" opacity="0.42"/>
<circle cx="484.11640211640207" cy="313.44888888888886" r="3.2" fill="#2563eb" opacity="0.42"/>
<circle cx="122.2116402116402" cy="320.31534391534393" r="3.2" fill="#2563eb" opacity="0.42"/>
<circle cx="356.7795414462081" cy="366.8987654320988" r="3.2" fill="#2563eb" opacity="0.42"/>
<circle cx="477.41446208112876" cy="315.9580952380952" r="3.2" fill="#2563eb" opacity="0.42"/>
<circle cx="437.2028218694885" cy="332.6793650793651" r="3.2" fill="#2563eb" opacity="0.42"/>
<circle cx="363.48148148148147" cy="363.659823633157" r="3.2" fill="#2563eb" opacity="0.42"/>
<circle cx="577.9435626102293" cy="273.2358377425044" r="3.2" fill="#2563eb" opacity="0.42"/>
<circle cx="390.28924162257493" cy="352.18638447971784" r="3.2" fill="#2563eb" opacity="0.42"/>
<circle cx="631.5590828924162" cy="250.3485008818342" r="3.2" fill="#2563eb" opacity="0.42"/>
<circle cx="343.37566137566137" cy="371.46906525573195" r="3.2" fill="#2563eb" opacity="0.42"/>
<circle cx="571.241622574956" cy="275.46398589065257" r="3.2" fill="#2563eb" opacity="0.42"/>
<circle cx="464.010582010582" cy="320.5930158730159" r="3.2" fill="#2563eb" opacity="0.42"/>
<circle cx="537.7319223985891" cy="289.4074074074074" r="3.2" fill="#2563eb" opacity="0.42"/>
<circle cx="423.79894179894177" cy="337.3300881834215" r="3.2" fill="#2563eb" opacity="0.42"/>
<circle cx="363.48148148148147" cy="362.5990828924162" r="3.2" fill="#2563eb" opacity="0.42"/>
<circle cx="537.7319223985891" cy="288.72649029982364" r="3.2" fill="#2563eb" opacity="0.42"/>
<circle cx="490.8183421516755" cy="308.4564373897707" r="3.2" fill="#2563eb" opacity="0.42"/>
<circle cx="222.74074074074073" cy="280.2453615520282" r="3.2" fill="#2563eb" opacity="0.42"/>
<circle cx="443.90476190476187" cy="327.5136507936508" r="3.2" fill="#2563eb" opacity="0.42"/>
<circle cx="343.37566137566137" cy="369.6701234567901" r="3.2" fill="#2563eb" opacity="0.42"/>
<circle cx="430.50088183421514" cy="332.860811287478" r="3.2" fill="#2563eb" opacity="0.42"/>
<circle cx="423.79894179894177" cy="335.59125220458554" r="3.2" fill="#2563eb" opacity="0.42"/>
<circle cx="195.93298059964727" cy="292.7600705467372" r="3.2" fill="#2563eb" opacity="0.42"/>
<circle cx="336.673721340388" cy="371.8257495590829" r="3.2" fill="#2563eb" opacity="0.42"/>
<circle cx="477.41446208112876" cy="312.4476895943563" r="3.2" fill="#2563eb" opacity="0.42"/>
<circle cx="283.058201058201" cy="256.40959435626104" r="3.2" fill="#2563eb" opacity="0.42"/>
<circle cx="477.41446208112876" cy="312.432733686067" r="3.2" fill="#2563eb" opacity="0.42"/>
<circle cx="477.41446208112876" cy="312.42962962962963" r="3.2" fill="#2563eb" opacity="0.42"/>
<circle cx="403.69312169312167" cy="343.44705467372137" r="3.2" fill="#2563eb" opacity="0.42"/>
<circle cx="551.1358024691358" cy="281.211569664903" r="3.2" fill="#2563eb" opacity="0.42"/>
<circle cx="323.26984126984127" cy="239.73601410934745" r="3.2" fill="#2563eb" opacity="0.42"/>
<circle cx="611.4532627865962" cy="255.71400352733687" r="3.2" fill="#2563eb" opacity="0.42"/>
<circle cx="443.90476190476187" cy="326.1975308641975" r="3.2" fill="#2563eb" opacity="0.42"/>
<circle cx="336.673721340388" cy="371.20860670194" r="3.2" fill="#2563eb" opacity="0.42"/>
<circle cx="598.0493827160494" cy="261.12493827160495" r="3.2" fill="#2563eb" opacity="0.42"/>
<circle cx="323.26984126984127" cy="376.57862433862437" r="3.2" fill="#2563eb" opacity="0.42"/>
<circle cx="356.7795414462081" cy="362.44952380952384" r="3.2" fill="#2563eb" opacity="0.42"/>
<circle cx="323.26984126984127" cy="376.4397883597884" r="3.2" fill="#2563eb" opacity="0.42"/>
<circle cx="356.7795414462081" cy="362.1704409171076" r="3.2" fill="#2563eb" opacity="0.42"/>
<circle cx="323.26984126984127" cy="375.8587654320988" r="3.2" fill="#2563eb" opacity="0.42"/>
<circle cx="329.97178130511463" cy="372.9626807760141" r="3.2" fill="#2563eb" opacity="0.42"/>
<circle cx="464.010582010582" cy="316.4273721340388" r="3.2" fill="#2563eb" opacity="0.42"/>
<circle cx="376.8853615520282" cy="353.0617283950617" r="3.2" fill="#2563eb" opacity="0.42"/>
<circle cx="430.50088183421514" cy="196.23294532627867" r="3.2" fill="#2563eb" opacity="0.42"/>
<circle cx="457.3086419753086" cy="318.87054673721343" r="3.2" fill="#2563eb" opacity="0.42"/>
<circle cx="497.5202821869488" cy="301.8910758377425" r="3.2" fill="#2563eb" opacity="0.42"/>
<circle cx="470.71252204585534" cy="313.10574955908294" r="3.2" fill="#2563eb" opacity="0.42"/>
<circle cx="269.6543209876543" cy="264.2704761904762" r="3.2" fill="#2563eb" opacity="0.42"/>
<circle cx="356.7795414462081" cy="360.9748148148148" r="3.2" fill="#2563eb" opacity="0.42"/>
<circle cx="390.28924162257493" cy="346.85022927689596" r="3.2" fill="#2563eb" opacity="0.42"/>
<circle cx="236.14462081128747" cy="278.44867724867726" r="3.2" fill="#2563eb" opacity="0.42"/>
<circle cx="504.22222222222223" cy="298.75033509700177" r="3.2" fill="#2563eb" opacity="0.42"/>
<circle cx="390.28924162257493" cy="346.6436684303351" r="3.2" fill="#2563eb" opacity="0.42"/>
<circle cx="396.9911816578483" cy="343.6079012345679" r="3.2" fill="#2563eb" opacity="0.42"/>
<circle cx="410.39506172839504" cy="337.68028218694883" r="3.2" fill="#2563eb" opacity="0.42"/>
<circle cx="376.8853615520282" cy="351.7264197530864" r="3.2" fill="#2563eb" opacity="0.42"/>
<circle cx="417.0970017636684" cy="334.6625749559083" r="3.2" fill="#2563eb" opacity="0.42"/>
<circle cx="289.76014109347443" cy="256.7668430335097" r="3.2" fill="#2563eb" opacity="0.42"/>
<circle cx="470.71252204585534" cy="311.9688183421517" r="3.2" fill="#2563eb" opacity="0.42"/>
<circle cx="329.97178130511463" cy="371.2094532627866" r="3.2" fill="#2563eb" opacity="0.42"/>
<circle cx="323.26984126984127" cy="374.0036684303351" r="3.2" fill="#2563eb" opacity="0.42"/>
<circle cx="316.5679012345679" cy="376.6305467372134" r="3.2" fill="#2563eb" opacity="0.42"/>
<circle cx="343.37566137566137" cy="365.23386243386244" r="3.2" fill="#2563eb" opacity="0.42"/>
<circle cx="490.8183421516755" cy="303.10871252204583" r="3.2" fill="#2563eb" opacity="0.42"/>
<circle cx="396.9911816578483" cy="342.5920282186949" r="3.2" fill="#2563eb" opacity="0.42"/>
<circle cx="356.7795414462081" cy="359.52239858906523" r="3.2" fill="#2563eb" opacity="0.42"/>
<circle cx="484.11640211640207" cy="305.9032098765432" r="3.2" fill="#2563eb" opacity="0.42"/>
<circle cx="464.010582010582" cy="314.25509700176366" r="3.2" fill="#2563eb" opacity="0.42"/>
<circle cx="551.1358024691358" cy="277.4045855379189" r="3.2" fill="#2563eb" opacity="0.42"/>
<circle cx="370.18342151675483" cy="353.4618694885362" r="3.2" fill="#2563eb" opacity="0.42"/>
<circle cx="403.69312169312167" cy="209.82786596119928" r="3.2" fill="#2563eb" opacity="0.42"/>
<circle cx="222.74074074074073" cy="286.02483245149915" r="3.2" fill="#2563eb" opacity="0.42"/>
<circle cx="457.3086419753086" cy="316.6508641975309" r="3.2" fill="#2563eb" opacity="0.42"/>
<circle cx="396.9911816578483" cy="341.9794003527337" r="3.2" fill="#2563eb" opacity="0.42"/>
<circle cx="303.16402116402116" cy="381.43760141093475" r="3.2" fill="#2563eb" opacity="0.42"/>
<circle cx="497.5202821869488" cy="299.58052910052913" r="3.2" fill="#2563eb" opacity="0.42"/>
<circle cx="336.673721340388" cy="367.258835978836" r="3.2" fill="#2563eb" opacity="0.42"/>
<circle cx="437.2028218694885" cy="324.8771781305115" r="3.2" fill="#2563eb" opacity="0.42"/>
<circle cx="484.11640211640207" cy="304.9649382716049" r="3.2" fill="#2563eb" opacity="0.42"/>
<circle cx="376.8853615520282" cy="350.0928395061728" r="3.2" fill="#2563eb" opacity="0.42"/>
<circle cx="356.7795414462081" cy="358.4156613756614" r="3.2" fill="#2563eb" opacity="0.42"/>
<circle cx="115.50970017636683" cy="331.81276895943563" r="3.2" fill="#2563eb" opacity="0.42"/>
<circle cx="410.39506172839504" cy="335.79442680776015" r="3.2" fill="#2563eb" opacity="0.42"/>
<circle cx="309.86596119929453" cy="378.1029982363316" r="3.2" fill="#2563eb" opacity="0.42"/>
<circle cx="490.8183421516755" cy="301.8126278659612" r="3.2" fill="#2563eb" opacity="0.42"/>
<circle cx="403.69312169312167" cy="338.44218694885365" r="3.2" fill="#2563eb" opacity="0.42"/>
<circle cx="383.58730158730157" cy="346.9075132275132" r="3.2" fill="#2563eb" opacity="0.42"/>
<circle cx="82.0" cy="346.14730158730157" r="3.2" fill="#2563eb" opacity="0.42"/>
<circle cx="370.18342151675483" cy="352.49396825396826" r="3.2" fill="#2563eb" opacity="0.42"/>
<circle cx="531.0299823633156" cy="284.7628924162258" r="3.2" fill="#2563eb" opacity="0.42"/>
<circle cx="262.95238095238096" cy="269.9822222222222" r="3.2" fill="#2563eb" opacity="0.42"/>
<circle cx="309.86596119929453" cy="377.8780952380952" r="3.2" fill="#2563eb" opacity="0.42"/>
<circle cx="470.71252204585534" cy="310.14081128747796" r="3.2" fill="#2563eb" opacity="0.42"/>
<circle cx="309.86596119929453" cy="377.7426455026455" r="3.2" fill="#2563eb" opacity="0.42"/>
<circle cx="276.3562610229277" cy="391.837037037037" r="3.2" fill="#2563eb" opacity="0.42"/>
<circle cx="437.2028218694885" cy="324.0331569664903" r="3.2" fill="#2563eb" opacity="0.42"/>
<circle cx="202.63492063492063" cy="295.6919929453263" r="3.2" fill="#2563eb" opacity="0.42"/>
<circle cx="390.28924162257493" cy="343.6510758377425" r="3.2" fill="#2563eb" opacity="0.42"/>
<circle cx="323.26984126984127" cy="371.8689241622575" r="3.2" fill="#2563eb" opacity="0.42"/>
<circle cx="343.37566137566137" cy="363.38017636684305" r="3.2" fill="#2563eb" opacity="0.42"/>
<circle cx="329.97178130511463" cy="242.2246208112875" r="3.2" fill="#2563eb" opacity="0.42"/>
<circle cx="450.60670194003524" cy="318.0953791887125" r="3.2" fill="#2563eb" opacity="0.42"/>
<circle cx="524.3280423280423" cy="287.0031746031746" r="3.2" fill="#2563eb" opacity="0.42"/>
<circle cx="497.5202821869488" cy="298.27654320987654" r="3.2" fill="#2563eb" opacity="0.42"/>
<circle cx="490.8183421516755" cy="301.01460317460317" r="3.2" fill="#2563eb" opacity="0.42"/>
<circle cx="490.8183421516755" cy="300.9511111111111" r="3.2" fill="#2563eb" opacity="0.42"/>
<circle cx="363.48148148148147" cy="228.54165784832452" r="3.2" fill="#2563eb" opacity="0.42"/>
<circle cx="410.39506172839504" cy="334.64761904761906" r="3.2" fill="#2563eb" opacity="0.42"/>
<circle cx="370.18342151675483" cy="225.78243386243386" r="3.2" fill="#2563eb" opacity="0.42"/>
<circle cx="437.2028218694885" cy="323.2952380952381" r="3.2" fill="#2563eb" opacity="0.42"/>
<circle cx="577.9435626102293" cy="264.02017636684303" r="3.2" fill="#2563eb" opacity="0.42"/>
<circle cx="423.79894179894177" cy="328.8656084656085" r="3.2" fill="#2563eb" opacity="0.42"/>
<circle cx="464.010582010582" cy="311.89770723104056" r="3.2" fill="#2563eb" opacity="0.42"/>
<circle cx="457.3086419753086" cy="314.65947089947093" r="3.2" fill="#2563eb" opacity="0.42"/>
<circle cx="329.97178130511463" cy="368.17650793650796" r="3.2" fill="#2563eb" opacity="0.42"/>
<circle cx="403.69312169312167" cy="337.0659611992945" r="3.2" fill="#2563eb" opacity="0.42"/>
<circle cx="343.37566137566137" cy="362.4023985890653" r="3.2" fill="#2563eb" opacity="0.42"/>
<circle cx="370.18342151675483" cy="351.08021164021164" r="3.2" fill="#2563eb" opacity="0.42"/>
<circle cx="531.0299823633156" cy="283.2229982363316" r="3.2" fill="#2563eb" opacity="0.42"/>
<circle cx="309.86596119929453" cy="376.3390476190476" r="3.2" fill="#2563eb" opacity="0.42"/>
<circle cx="142.3174603174603" cy="322.33326278659615" r="3.2" fill="#2563eb" opacity="0.42"/>
<circle cx="323.26984126984127" cy="370.6075485008818" r="3.2" fill="#2563eb" opacity="0.42"/>
<circle cx="336.673721340388" cy="364.94236331569664" r="3.2" fill="#2563eb" opacity="0.42"/>
<circle cx="350.07760141093473" cy="359.26814814814816" r="3.2" fill="#2563eb" opacity="0.42"/>
<circle cx="403.69312169312167" cy="336.6788007054674" r="3.2" fill="#2563eb" opacity="0.42"/>
<circle cx="309.86596119929453" cy="376.0421869488536" r="3.2" fill="#2563eb" opacity="0.42"/>
<circle cx="142.3174603174603" cy="322.7088536155203" r="3.2" fill="#2563eb" opacity="0.42"/>
<circle cx="564.5396825396825" cy="268.71971781305115" r="3.2" fill="#2563eb" opacity="0.42"/>
<circle cx="323.26984126984127" cy="370.2689241622575" r="3.2" fill="#2563eb" opacity="0.42"/>
<circle cx="82.0" cy="348.1581657848325" r="3.2" fill="#2563eb" opacity="0.42"/>
<circle cx="517.626102292769" cy="288.3909700176367" r="3.2" fill="#2563eb" opacity="0.42"/>
<circle cx="356.7795414462081" cy="356.09269841269844" r="3.2" fill="#2563eb" opacity="0.42"/>
<circle cx="510.9241622574956" cy="291.18574955908286" r="3.2" fill="#2563eb" opacity="0.42"/>
<circle cx="336.673721340388" cy="364.5362962962963" r="3.2" fill="#2563eb" opacity="0.42"/>
<circle cx="477.41446208112876" cy="305.01460317460317" r="3.2" fill="#2563eb" opacity="0.42"/>
<circle cx="524.3280423280423" cy="285.25813051146383" r="3.2" fill="#2563eb" opacity="0.42"/>
<circle cx="604.7513227513227" cy="251.39061728395063" r="3.2" fill="#2563eb" opacity="0.42"/>
<circle cx="329.97178130511463" cy="367.0392945326279" r="3.2" fill="#2563eb" opacity="0.42"/>
<circle cx="296.4620811287478" cy="381.0600352733686" r="3.2" fill="#2563eb" opacity="0.42"/>
<circle cx="470.71252204585534" cy="307.67562610229277" r="3.2" fill="#2563eb" opacity="0.42"/>
<circle cx="370.18342151675483" cy="349.9946384479718" r="3.2" fill="#2563eb" opacity="0.42"/>
<circle cx="356.7795414462081" cy="355.6062081128748" r="3.2" fill="#2563eb" opacity="0.42"/>
<circle cx="417.0970017636684" cy="330.1916049382716" r="3.2" fill="#2563eb" opacity="0.42"/>
<circle cx="410.39506172839504" cy="332.8469841269841" r="3.2" fill="#2563eb" opacity="0.42"/>
<circle cx="370.18342151675483" cy="349.76917107583773" r="3.2" fill="#2563eb" opacity="0.42"/>
<circle cx="376.8853615520282" cy="346.87760141093474" r="3.2" fill="#2563eb" opacity="0.42"/>
<circle cx="370.18342151675483" cy="349.6833862433862" r="3.2" fill="#2563eb" opacity="0.42"/>
<circle cx="343.37566137566137" cy="360.7493474426808" r="3.2" fill="#2563eb" opacity="0.42"/>
<circle cx="477.41446208112876" cy="304.31167548500883" r="3.2" fill="#2563eb" opacity="0.42"/>
<circle cx="564.5396825396825" cy="267.6205996472663" r="3.2" fill="#2563eb" opacity="0.42"/>
<circle cx="410.39506172839504" cy="332.49509700176367" r="3.2" fill="#2563eb" opacity="0.42"/>
<circle cx="417.0970017636684" cy="329.63880070546736" r="3.2" fill="#2563eb" opacity="0.42"/>
<circle cx="417.0970017636684" cy="329.5770017636684" r="3.2" fill="#2563eb" opacity="0.42"/>
<circle cx="396.9911816578483" cy="338.01495590828927" r="3.2" fill="#2563eb" opacity="0.42"/>
<circle cx="128.91358024691357" cy="329.6825396825397" r="3.2" fill="#2563eb" opacity="0.42"/>
<circle cx="524.3280423280423" cy="284.29022927689596" r="3.2" fill="#2563eb" opacity="0.42"/>
<circle cx="356.7795414462081" cy="354.7946384479718" r="3.2" fill="#2563eb" opacity="0.42"/>
<circle cx="396.9911816578483" cy="337.7942857142857" r="3.2" fill="#2563eb" opacity="0.42"/>
<circle cx="149.01940035273367" cy="321.3828571428571" r="3.2" fill="#2563eb" opacity="0.42"/>
<circle cx="464.010582010582" cy="309.3834215167549" r="3.2" fill="#2563eb" opacity="0.42"/>
<circle cx="316.5679012345679" cy="251.09149911816579" r="3.2" fill="#2563eb" opacity="0.42"/>
<text x="462" y="462" text-anchor="middle" class="label">Actual pickups at t+5min</text>
<text x="24" y="250" transform="rotate(-90 24 250)" text-anchor="middle" class="label">Predicted pickups at t+5min</text>
</svg>
