<svg xmlns="http://www.w3.org/2000/svg" width="920" height="520" viewBox="0 0 920 520">
  <rect width="100%" height="100%" fill="#ffffff"/>
  <style>
    text { font-family: Arial, sans-serif; fill: #111827; }
    .title { font-size: 22px; font-weight: 700; }
    .subtitle { font-size: 13px; fill: #6b7280; }
    .label { font-size: 12px; fill: #6b7280; }
    .tick { font-size: 11px; fill: #6b7280; }
  </style>
<text x="40" y="42" class="title">NYC t+5min Demand Model Metrics</text>
<text x="40" y="64" class="subtitle">Ridge baseline is compared against simple temporal baselines on March 2026 test data.</text>
<text x="72" y="66" class="label">RMSE lower is better</text>
<line x1="72" y1="386" x2="312" y2="386" stroke="#1f2937" stroke-width="1"/>
<line x1="72" y1="386.0" x2="312" y2="386.0" stroke="#e5e7eb" stroke-width="1"/>
<text x="64" y="390.0" text-anchor="end" class="tick">0.00</text>
<line x1="72" y1="311.0" x2="312" y2="311.0" stroke="#e5e7eb" stroke-width="1"/>
<text x="64" y="315.0" text-anchor="end" class="tick">0.96</text>
<line x1="72" y1="236.0" x2="312" y2="236.0" stroke="#e5e7eb" stroke-width="1"/>
<text x="64" y="240.0" text-anchor="end" class="tick">1.92</text>
<line x1="72" y1="161.0" x2="312" y2="161.0" stroke="#e5e7eb" stroke-width="1"/>
<text x="64" y="165.0" text-anchor="end" class="tick">2.88</text>
<line x1="72" y1="86.0" x2="312" y2="86.0" stroke="#e5e7eb" stroke-width="1"/>
<text x="64" y="90.0" text-anchor="end" class="tick">3.84</text>
<rect x="100" y="164.5048834777028" width="52" height="221.4951165222972" fill="#2563eb" rx="4"/>
<text x="126.0" y="156.5048834777028" text-anchor="middle" class="tick">2.837</text>
<text x="126.0" y="408" text-anchor="middle" class="tick">Ridge</text>
<rect x="172" y="118.14285714285717" width="52" height="267.85714285714283" fill="#f97316" rx="4"/>
<text x="198.0" y="110.14285714285717" text-anchor="middle" class="tick">3.431</text>
<text x="198.0" y="408" text-anchor="middle" class="tick">Persistence</text>
<rect x="244" y="138.3940475416785" width="52" height="247.6059524583215" fill="#16a34a" rx="4"/>
<text x="270.0" y="130.3940475416785" text-anchor="middle" class="tick">3.172</text>
<text x="270.0" y="408" text-anchor="middle" class="tick">Rolling 1h</text>
<text x="348" y="66" class="label">R2 higher is better</text>
<line x1="348" y1="386" x2="588" y2="386" stroke="#1f2937" stroke-width="1"/>
<line x1="348" y1="386.0" x2="588" y2="386.0" stroke="#e5e7eb" stroke-width="1"/>
<text x="340" y="390.0" text-anchor="end" class="tick">0.00</text>
<line x1="348" y1="311.0" x2="588" y2="311.0" stroke="#e5e7eb" stroke-width="1"/>
<text x="340" y="315.0" text-anchor="end" class="tick">0.24</text>
<line x1="348" y1="236.0" x2="588" y2="236.0" stroke="#e5e7eb" stroke-width="1"/>
<text x="340" y="240.0" text-anchor="end" class="tick">0.49</text>
<line x1="348" y1="161.0" x2="588" y2="161.0" stroke="#e5e7eb" stroke-width="1"/>
<text x="340" y="165.0" text-anchor="end" class="tick">0.73</text>
<line x1="348" y1="86.0" x2="588" y2="86.0" stroke="#e5e7eb" stroke-width="1"/>
<text x="340" y="90.0" text-anchor="end" class="tick">0.98</text>
<rect x="376" y="118.14285714285717" width="52" height="267.85714285714283" fill="#2563eb" rx="4"/>
<text x="402.0" y="110.14285714285717" text-anchor="middle" class="tick">0.875</text>
<text x="402.0" y="408" text-anchor="middle" class="tick">Ridge</text>
<rect x="448" y="135.8501507635984" width="52" height="250.1498492364016" fill="#f97316" rx="4"/>
<text x="474.0" y="127.8501507635984" text-anchor="middle" class="tick">0.817</text>
<text x="474.0" y="408" text-anchor="middle" class="tick">Persistence</text>
<rect x="520" y="127.70263429324473" width="52" height="258.2973657067553" fill="#16a34a" rx="4"/>
<text x="546.0" y="119.70263429324473" text-anchor="middle" class="tick">0.844</text>
<text x="546.0" y="408" text-anchor="middle" class="tick">Rolling 1h</text>
<text x="624" y="66" class="label">Top-5 overlap higher is better</text>
<line x1="624" y1="386" x2="864" y2="386" stroke="#1f2937" stroke-width="1"/>
<line x1="624" y1="386.0" x2="864" y2="386.0" stroke="#e5e7eb" stroke-width="1"/>
<text x="616" y="390.0" text-anchor="end" class="tick">0.00</text>
<line x1="624" y1="311.0" x2="864" y2="311.0" stroke="#e5e7eb" stroke-width="1"/>
<text x="616" y="315.0" text-anchor="end" class="tick">0.17</text>
<line x1="624" y1="236.0" x2="864" y2="236.0" stroke="#e5e7eb" stroke-width="1"/>
<text x="616" y="240.0" text-anchor="end" class="tick">0.35</text>
<line x1="624" y1="161.0" x2="864" y2="161.0" stroke="#e5e7eb" stroke-width="1"/>
<text x="616" y="165.0" text-anchor="end" class="tick">0.52</text>
<line x1="624" y1="86.0" x2="864" y2="86.0" stroke="#e5e7eb" stroke-width="1"/>
<text x="616" y="90.0" text-anchor="end" class="tick">0.69</text>
<rect x="652" y="118.14285714285717" width="52" height="267.85714285714283" fill="#2563eb" rx="4"/>
<text x="678.0" y="110.14285714285717" text-anchor="middle" class="tick">0.618</text>
<text x="678.0" y="408" text-anchor="middle" class="tick">Ridge</text>
<rect x="724" y="140.4035122020213" width="52" height="245.5964877979787" fill="#f97316" rx="4"/>
<text x="750.0" y="132.4035122020213" text-anchor="middle" class="tick">0.567</text>
<text x="750.0" y="408" text-anchor="middle" class="tick">Persistence</text>
<rect x="796" y="123.43372762234782" width="52" height="262.5662723776522" fill="#16a34a" rx="4"/>
<text x="822.0" y="115.43372762234782" text-anchor="middle" class="tick">0.606</text>
<text x="822.0" y="408" text-anchor="middle" class="tick">Rolling 1h</text>
<text x="40" y="480" class="subtitle">Ridge improves RMSE and ranking overlap against the two simple baselines.</text>
</svg>
