<svg xmlns="http://www.w3.org/2000/svg" width="920" height="520" viewBox="0 0 920 520">
  <rect width="100%" height="100%" fill="#ffffff"/>
  <style>
    text { font-family: Arial, sans-serif; fill: #111827; }
    .title { font-size: 22px; font-weight: 700; }
    .subtitle { font-size: 13px; fill: #6b7280; }
    .label { font-size: 12px; fill: #6b7280; }
    .tick { font-size: 11px; fill: #6b7280; }
  </style>
<text x="40" y="42" class="title">Largest-Error Sample by Zone Type</text>
<text x="40" y="64" class="subtitle">Mean absolute error from the exported largest-error sample. Use as diagnostics, not population-level error.</text>
<line x1="210.0" y1="88" x2="210.0" y2="388" stroke="#e5e7eb" stroke-width="1"/>
<text x="210.0" y="410" text-anchor="middle" class="tick">0</text>
<line x1="330.0" y1="88" x2="330.0" y2="388" stroke="#e5e7eb" stroke-width="1"/>
<text x="330.0" y="410" text-anchor="middle" class="tick">7</text>
<line x1="450.0" y1="88" x2="450.0" y2="388" stroke="#e5e7eb" stroke-width="1"/>
<text x="450.0" y="410" text-anchor="middle" class="tick">14</text>
<line x1="570.0" y1="88" x2="570.0" y2="388" stroke="#e5e7eb" stroke-width="1"/>
<text x="570.0" y="410" text-anchor="middle" class="tick">22</text>
<line x1="690.0" y1="88" x2="690.0" y2="388" stroke="#e5e7eb" stroke-width="1"/>
<text x="690.0" y="410" text-anchor="middle" class="tick">29</text>
<line x1="810.0" y1="88" x2="810.0" y2="388" stroke="#e5e7eb" stroke-width="1"/>
<text x="810.0" y="410" text-anchor="middle" class="tick">36</text>
<text x="196" y="113" text-anchor="end" class="label">commercial_mixed</text>
<rect x="210" y="88" width="521.7391304347826" height="38" fill="#2563eb" rx="5"/>
<text x="739.7391304347826" y="113" class="tick">31.3</text>
<text x="196" y="167" text-anchor="end" class="label">urban_mixed</text>
<rect x="210" y="142" width="489.8722904013371" height="38" fill="#2563eb" rx="5"/>
<text x="707.8722904013371" y="167" class="tick">29.4</text>
<text x="196" y="221" text-anchor="end" class="label">business_core</text>
<rect x="210" y="196" width="429.3164479876641" height="38" fill="#2563eb" rx="5"/>
<text x="647.3164479876641" y="221" class="tick">25.7</text>
<text x="196" y="275" text-anchor="end" class="label">transit_hub</text>
<rect x="210" y="250" width="426.9443907368056" height="38" fill="#2563eb" rx="5"/>
<text x="644.9443907368056" y="275" class="tick">25.6</text>
<text x="196" y="329" text-anchor="end" class="label">residential_mixed</text>
<rect x="210" y="304" width="415.9643500938889" height="38" fill="#2563eb" rx="5"/>
<text x="633.9643500938889" y="329" class="tick">24.9</text>
<text x="510" y="456" text-anchor="middle" class="label">Mean absolute error</text>
</svg>
