<svg xmlns="http://www.w3.org/2000/svg" width="1400" height="920" viewBox="0 0 1400 920">
  <defs>
    <filter id="shadow" x="-20%" y="-20%" width="140%" height="140%">
      <feDropShadow dx="0" dy="6" stdDeviation="10" flood-color="#000000" flood-opacity="0.12"/>
    </filter>
  </defs>

  <rect width="1400" height="920" fill="#efe8dc"/>

  <rect x="0" y="0" width="1400" height="110" fill="#18212b"/>
  <text x="56" y="64" font-family="Helvetica, Arial, sans-serif" font-size="38" font-weight="700" fill="#ffffff">Gangnam Station Micro Scope</text>
  <text x="56" y="94" font-family="Helvetica, Arial, sans-serif" font-size="18" fill="#d2dae3">Schematic 2D map for prediction, dispatch, Unity, and SUMO around Gangnam Station</text>

  <rect x="70" y="150" width="1260" height="700" rx="28" fill="#f8f5ef" stroke="#d2c5b1" stroke-width="3"/>

  <!-- city blocks -->
  <g filter="url(#shadow)">
    <rect x="130" y="220" width="255" height="145" rx="18" fill="#ddd3c0"/>
    <rect x="455" y="210" width="195" height="155" rx="18" fill="#d8cfbf"/>
    <rect x="755" y="220" width="235" height="145" rx="18" fill="#ddd3c0"/>
    <rect x="1045" y="225" width="185" height="140" rx="18" fill="#d8cfbf"/>

    <rect x="125" y="500" width="260" height="165" rx="18" fill="#ddd3c0"/>
    <rect x="445" y="510" width="215" height="155" rx="18" fill="#d8cfbf"/>
    <rect x="750" y="505" width="240" height="160" rx="18" fill="#ddd3c0"/>
    <rect x="1045" y="500" width="185" height="160" rx="18" fill="#d8cfbf"/>
  </g>

  <!-- main roads -->
  <rect x="600" y="170" width="180" height="660" rx="26" fill="#4a5563"/>
  <rect x="90" y="392" width="1240" height="160" rx="24" fill="#4a5563"/>

  <!-- side roads -->
  <rect x="252" y="170" width="78" height="660" rx="18" fill="#6b7280"/>
  <rect x="1070" y="170" width="78" height="660" rx="18" fill="#6b7280"/>
  <rect x="90" y="255" width="1240" height="62" rx="16" fill="#6b7280"/>
  <rect x="90" y="675" width="1240" height="62" rx="16" fill="#6b7280"/>

  <!-- lane lines -->
  <g stroke="#ffffff" stroke-width="5" stroke-dasharray="20 14" opacity="0.92">
    <line x1="690" y1="182" x2="690" y2="818"/>
    <line x1="280" y1="182" x2="280" y2="818"/>
    <line x1="1108" y1="182" x2="1108" y2="818"/>
    <line x1="102" y1="472" x2="1318" y2="472"/>
    <line x1="102" y1="286" x2="1318" y2="286"/>
    <line x1="102" y1="706" x2="1318" y2="706"/>
  </g>

  <!-- crosswalks -->
  <g fill="#f8fafc">
    <rect x="562" y="357" width="28" height="40" rx="4"/>
    <rect x="562" y="401" width="28" height="40" rx="4"/>
    <rect x="562" y="445" width="28" height="40" rx="4"/>
    <rect x="562" y="489" width="28" height="40" rx="4"/>
    <rect x="790" y="357" width="28" height="40" rx="4"/>
    <rect x="790" y="401" width="28" height="40" rx="4"/>
    <rect x="790" y="445" width="28" height="40" rx="4"/>
    <rect x="790" y="489" width="28" height="40" rx="4"/>

    <rect x="532" y="352" width="42" height="26" rx="4"/>
    <rect x="488" y="352" width="42" height="26" rx="4"/>
    <rect x="444" y="352" width="42" height="26" rx="4"/>
    <rect x="400" y="352" width="42" height="26" rx="4"/>
    <rect x="836" y="352" width="42" height="26" rx="4"/>
    <rect x="880" y="352" width="42" height="26" rx="4"/>
    <rect x="924" y="352" width="42" height="26" rx="4"/>
    <rect x="968" y="352" width="42" height="26" rx="4"/>

    <rect x="532" y="566" width="42" height="26" rx="4"/>
    <rect x="488" y="566" width="42" height="26" rx="4"/>
    <rect x="444" y="566" width="42" height="26" rx="4"/>
    <rect x="400" y="566" width="42" height="26" rx="4"/>
    <rect x="836" y="566" width="42" height="26" rx="4"/>
    <rect x="880" y="566" width="42" height="26" rx="4"/>
    <rect x="924" y="566" width="42" height="26" rx="4"/>
    <rect x="968" y="566" width="42" height="26" rx="4"/>
  </g>

  <!-- zone overlays -->
  <g font-family="Helvetica, Arial, sans-serif">
    <rect x="118" y="184" width="320" height="210" rx="28" fill="#c5944b" fill-opacity="0.18" stroke="#8b5e22" stroke-width="3"/>
    <rect x="454" y="184" width="240" height="210" rx="28" fill="#4ea7d8" fill-opacity="0.18" stroke="#2d6f95" stroke-width="3"/>
    <rect x="706" y="184" width="286" height="210" rx="28" fill="#c5944b" fill-opacity="0.18" stroke="#8b5e22" stroke-width="3"/>

    <rect x="118" y="372" width="320" height="170" rx="28" fill="#c5944b" fill-opacity="0.18" stroke="#8b5e22" stroke-width="3"/>
    <rect x="454" y="356" width="336" height="202" rx="30" fill="#f7b500" fill-opacity="0.26" stroke="#a66b00" stroke-width="4"/>
    <rect x="806" y="372" width="278" height="170" rx="28" fill="#c5944b" fill-opacity="0.18" stroke="#8b5e22" stroke-width="3"/>

    <rect x="118" y="542" width="320" height="210" rx="28" fill="#c5944b" fill-opacity="0.18" stroke="#8b5e22" stroke-width="3"/>
    <rect x="454" y="542" width="240" height="210" rx="28" fill="#4ea7d8" fill-opacity="0.18" stroke="#2d6f95" stroke-width="3"/>
    <rect x="706" y="542" width="286" height="210" rx="28" fill="#c5944b" fill-opacity="0.18" stroke="#8b5e22" stroke-width="3"/>

    <!-- labels -->
    <text x="148" y="232" font-size="30" font-weight="700" fill="#5d3f17">A1</text>
    <text x="148" y="266" font-size="18" fill="#5d3f17">NW side streets</text>
    <text x="148" y="292" font-size="18" fill="#5d3f17">Seocho-side inflow</text>

    <text x="484" y="232" font-size="30" font-weight="700" fill="#1e5e82">A2</text>
    <text x="484" y="266" font-size="18" fill="#1e5e82">North exits</text>
    <text x="484" y="292" font-size="18" fill="#1e5e82">north curbside</text>

    <text x="736" y="232" font-size="30" font-weight="700" fill="#5d3f17">A3</text>
    <text x="736" y="266" font-size="18" fill="#5d3f17">Teheran-ro offices</text>
    <text x="736" y="292" font-size="18" fill="#5d3f17">north-east frontage</text>

    <text x="148" y="420" font-size="30" font-weight="700" fill="#5d3f17">B1</text>
    <text x="148" y="454" font-size="18" fill="#5d3f17">West frontage</text>
    <text x="148" y="480" font-size="18" fill="#5d3f17">crossing inflow</text>

    <text x="484" y="412" font-size="34" font-weight="700" fill="#8a5200">B2</text>
    <text x="484" y="448" font-size="20" font-weight="700" fill="#8a5200">Gangnam Station core hotspot</text>
    <text x="484" y="478" font-size="18" fill="#8a5200">main dispatch priority</text>
    <circle cx="752" cy="392" r="16" fill="#ef4444"/>
    <text x="752" y="398" text-anchor="middle" font-size="15" font-weight="700" fill="#ffffff">★</text>

    <text x="836" y="420" font-size="30" font-weight="700" fill="#5d3f17">B3</text>
    <text x="836" y="454" font-size="18" fill="#5d3f17">East frontage</text>
    <text x="836" y="480" font-size="18" fill="#5d3f17">pickup belt</text>

    <text x="148" y="590" font-size="30" font-weight="700" fill="#5d3f17">C1</text>
    <text x="148" y="624" font-size="18" fill="#5d3f17">South-west belt</text>
    <text x="148" y="650" font-size="18" fill="#5d3f17">commercial flow</text>

    <text x="484" y="590" font-size="30" font-weight="700" fill="#1e5e82">C2</text>
    <text x="484" y="624" font-size="18" fill="#1e5e82">South exits</text>
    <text x="484" y="650" font-size="18" fill="#1e5e82">south curbside</text>

    <text x="736" y="590" font-size="30" font-weight="700" fill="#5d3f17">C3</text>
    <text x="736" y="624" font-size="18" fill="#5d3f17">South-east belt</text>
    <text x="736" y="650" font-size="18" fill="#5d3f17">connector demand</text>
  </g>

  <!-- station + road labels -->
  <g font-family="Helvetica, Arial, sans-serif">
    <rect x="575" y="585" width="230" height="56" rx="18" fill="#ffffff" stroke="#d1d5db" stroke-width="2"/>
    <circle cx="612" cy="613" r="14" fill="#16a34a"/>
    <text x="612" y="619" text-anchor="middle" font-size="17" font-weight="700" fill="#ffffff">2</text>
    <text x="642" y="620" font-size="24" font-weight="700" fill="#111827">Gangnam Station</text>

    <text x="806" y="163" font-size="24" font-weight="700" fill="#374151">Gangnam-daero</text>
    <text x="1170" y="380" font-size="24" font-weight="700" fill="#374151">Teheran-ro</text>
    <text x="154" y="248" font-size="16" fill="#6b7280">Seocho-side</text>
    <text x="1078" y="248" font-size="16" fill="#6b7280">Yeoksam-side</text>
  </g>

  <!-- footer -->
  <rect x="110" y="790" width="1180" height="42" rx="14" fill="#ffffff" stroke="#d1d5db" stroke-width="2"/>
  <text x="140" y="818" font-family="Helvetica, Arial, sans-serif" font-size="20" fill="#1f2937">Recommended priority: B2 → A2 / B3 / C2 → surrounding support zones</text>
</svg>
